<?xml version="1.0" encoding="utf-8"?>
<!-- Generator: Adobe Illustrator 19.2.0, SVG Export Plug-In . SVG Version: 6.00 Build 0)  -->
<svg version="1.1" id="Layer_15" xmlns="http://www.w3.org/2000/svg" xmlns:xlink="http://www.w3.org/1999/xlink" x="0px" y="0px"
	 width="197px" height="148.4px" viewBox="0 0 197 148.4" style="enable-background:new 0 0 197 148.4;" xml:space="preserve">
<style type="text/css">
	.st0{fill:#999999;stroke:#FFFFFF;stroke-width:1.51;stroke-miterlimit:10;}
	.st1{fill:#EEEEEE;stroke:#FFFFFF;stroke-width:0.9;stroke-miterlimit:10;}
	.st2{fill:#DDDDDD;stroke:#FFFFFF;stroke-width:0.9;stroke-miterlimit:10;}
	.st3{fill:#AAAAAA;stroke:#FFFFFF;stroke-width:0.9;stroke-miterlimit:10;}
	.st4{fill:#555555;stroke:#FFFFFF;stroke-width:0.9;stroke-miterlimit:10;}
	.st5{fill:#231F20;stroke:#FFFFFF;stroke-width:0.9;stroke-miterlimit:10;}
</style>
<title>rockpaperscissors</title>
<g>
	<polygon class="st0" points="85,0.8 180,21.3 196.2,106.9 178.3,147.7 110.9,147.7 59.1,147.7 0.8,122.1 10.5,63.2 40.3,28.6 	"/>
	<polygon class="st1" points="10.5,64.1 50.8,101.5 0.8,121.7 	"/>
	<path class="st2" d="M85.3,1l41,37.2L76.7,59L85,1.1C85,1,85.1,1,85.3,1C85.2,1,85.2,1,85.3,1z"/>
	<path class="st3" d="M86,1l93,20.1c0.1,0,0.2,0.2,0.2,0.3c0,0.1-0.1,0.2-0.2,0.2l-52.7,16.5L85.8,1.5c-0.1-0.1-0.1-0.3-0.1-0.4
		C85.8,1,85.9,1,86,1z"/>
	<polygon class="st4" points="76.3,59.4 126,38.5 116.6,98.4 	"/>
	<path class="st4" d="M84.9,1.5l-8.6,57.9l-36-30.8L84.4,1.2c0.2-0.1,0.4,0,0.5,0.1C84.9,1.4,84.9,1.5,84.9,1.5z"/>
	<path class="st4" d="M51.5,101.5l64.9-3.1c0.1,0,0.2,0,0.3,0.1l59.6,48.5L51.5,101.5L51.5,101.5z"/>
	<path class="st5" d="M117.2,98.6l78.5,8.3c0.2,0,0.3,0.2,0.3,0.4c0,0,0,0.1,0,0.1l-17.2,39.4c-0.2,0.4-0.7,0.6-1.1,0.4
		c-0.1,0-0.1-0.1-0.2-0.1L117.2,98.6z"/>
	<path class="st4" d="M126.8,38l52.7-16.5c0.2-0.1,0.4,0.1,0.5,0.2c0,0,0,0,0,0l15.9,83.6c0,0.2-0.1,0.4-0.3,0.4
		c-0.1,0-0.2,0-0.3-0.1l-68.7-67.1c-0.1-0.1-0.1-0.4,0-0.5C126.7,38,126.8,38,126.8,38z"/>
	<path class="st2" d="M51.7,101.6l124.3,46.1H59.2c-0.1,0-0.1,0-0.1-0.1l-7.6-45.9C51.5,101.6,51.5,101.6,51.7,101.6
		C51.6,101.6,51.6,101.6,51.7,101.6z"/>
	<path class="st2" d="M40.3,29L51,101.5L10.5,64.1L40,28.9c0.1-0.1,0.2-0.1,0.3,0C40.3,28.9,40.3,29,40.3,29z"/>
	<path class="st3" d="M1.7,121.3l49.1-19.8l8.3,45.4L1.7,122.1c-0.2-0.1-0.3-0.3-0.2-0.5C1.5,121.5,1.6,121.4,1.7,121.3z"/>
</g>
</svg>
