<svg id="Layer_16" data-name="Layer 16" xmlns="http://www.w3.org/2000/svg" width="197.14" height="176.79" viewBox="0 0 197.14 176.79">
  <defs>
    <style>
      .cls-1, .cls-3, .cls-7 {
        fill: #f0f1f2;
      }

      .cls-1, .cls-2, .cls-3, .cls-4, .cls-5, .cls-6, .cls-7 {
        stroke: #fff;
        stroke-miterlimit: 10;
      }

      .cls-1, .cls-2 {
        stroke-width: 0.89px;
      }

      .cls-2, .cls-4, .cls-6 {
        fill: #e3e5e6;
      }

      .cls-3, .cls-4 {
        stroke-width: 0.83px;
      }

      .cls-5 {
        fill: #fff;
      }

      .cls-5, .cls-6, .cls-7 {
        stroke-width: 0.87px;
      }
    </style>
  </defs>
  <title>rockpaperscissors</title>
  <g>
    <polygon class="cls-1" points="185.19 58.94 0.51 58.94 7.98 0.46 196.6 0.46 185.19 58.94"/>
    <polygon class="cls-2" points="195.66 116.51 11.06 118.02 0.55 58.88 185.23 58.88 195.66 116.51"/>
    <polygon class="cls-1" points="183.81 175.9 1.84 176.34 10.92 117.42 194.38 116.74 183.81 175.9"/>
    <polygon class="cls-3" points="39.8 0.76 76.53 59.32 0.78 59.02 39.8 0.76"/>
    <polygon class="cls-3" points="113.93 0.91 151.68 59.32 76.53 59.32 113.93 0.91"/>
    <polygon class="cls-4" points="76.53 59.32 114.1 117.3 38.95 117.3 76.53 59.32"/>
    <polygon class="cls-5" points="40.26 1.31 94.8 30.53 76.53 59.32 40.26 1.31"/>
    <polygon class="cls-5" points="151.41 58.25 161.03 1.07 122.3 13.82 151.41 58.25"/>
    <polygon class="cls-6" points="193.21 16.42 161.05 0.49 196.26 0.51 193.21 16.42"/>
    <polygon class="cls-6" points="185.19 58.94 151.68 59.32 193.55 16.09 185.19 58.94"/>
    <polygon class="cls-6" points="40.1 0.73 13.12 40.3 8.75 0.47 40.1 0.73"/>
    <polygon class="cls-7" points="39.43 115.86 46.37 81.35 76.48 59.29 39.43 115.86"/>
    <polygon class="cls-7" points="114.87 116.03 138.69 60.49 151.68 84.47 114.87 116.03"/>
    <polygon class="cls-6" points="92.99 83.18 110.85 60.16 128.06 83.35 92.99 83.18"/>
    <path class="cls-7" d="M151.89,84.32l43,32.7L185,59.48a0.12,0.12,0,0,0-.19-0.07L151.89,84.13A0.12,0.12,0,0,0,151.89,84.32Z"/>
    <polygon class="cls-5" points="10.93 117.43 18.25 59.54 46.64 80.98 10.93 117.43"/>
    <polygon class="cls-7" points="2.58 176.03 49.36 117.68 90.46 175.81 2.58 176.03"/>
    <polygon class="cls-6" points="183.41 175.95 156.2 118.93 124.52 175.58 183.41 175.95"/>
    <polygon class="cls-7" points="90.54 175.78 140.78 146.66 124.52 175.58 90.54 175.78"/>
    <polygon class="cls-5" points="155.95 118.76 76.83 153.33 140.78 146.66 155.95 118.76"/>
    <polygon class="cls-6" points="48.95 117.34 74.9 153.42 157.25 117.24 48.95 117.34"/>
  </g>
</svg>
