<?xml version="1.0" encoding="utf-8"?>
<!-- Generator: Adobe Illustrator 19.2.0, SVG Export Plug-In . SVG Version: 6.00 Build 0)  -->
<svg version="1.1" id="Layer_1" xmlns="http://www.w3.org/2000/svg" xmlns:xlink="http://www.w3.org/1999/xlink" x="0px" y="0px"
	 width="47px" height="41.6px" viewBox="0 0 47 41.6" style="enable-background:new 0 0 47 41.6;" xml:space="preserve">
<style type="text/css">
	.st0{fill:#404040;}
</style>
<g id="refresh">
	<path class="st0" d="M43.2,12.3c-0.3,0.1-0.7,0-0.8-0.3C38.9,4.6,31.7,0,23.5,0C15.2,0,7.6,5.1,4.4,12.7c-0.1,0.3,0,0.7,0.4,0.9
		l5.3,2c0.3,0.1,0.7,0,0.8-0.4c2.2-5,7.2-8.3,12.7-8.3c5.2,0,9.9,2.9,12.3,7.5c0.2,0.3,0,0.8-0.3,0.9l-2.8,1.1
		c-0.5,0.2-0.6,0.9-0.1,1.2l10.2,5.9c0.4,0.2,0.8,0,1-0.4l3-11.1c0.1-0.5-0.4-1-0.9-0.8L43.2,12.3z"/>
	<path class="st0" d="M23.5,34.6c-5.2,0-10-3-12.3-7.6c-0.2-0.3,0-0.8,0.4-0.9l2.7-1c0.5-0.2,0.6-0.9,0.1-1.2l-10-5.7
		c-0.4-0.2-0.8,0-0.9,0.4L0.4,29.4c-0.1,0.5,0.4,1,0.9,0.8l2.7-1c0.3-0.1,0.7,0,0.8,0.3c3.4,7.3,10.8,12.1,18.8,12.1
		c8.3,0,15.7-4.9,19-12.5c0.1-0.3,0-0.7-0.4-0.9L37,26.1c-0.3-0.1-0.7,0-0.8,0.3C33.9,31.5,29,34.6,23.5,34.6z"/>
</g>
</svg>
