<svg id="Layer_1" data-name="Layer 1" xmlns="http://www.w3.org/2000/svg" width="47" height="41.56" viewBox="0 0 47 41.56">
  <defs>
    <style>
      .cls-1 {
        fill: #f2efdc;
      }
    </style>
  </defs>
  <title>refresh</title>
  <g id="refresh">
    <path class="cls-1" d="M43.16,12.26a0.64,0.64,0,0,1-.82-0.33A20.66,20.66,0,0,0,23.55,0,20.92,20.92,0,0,0,4.41,12.68a0.66,0.66,0,0,0,.37.86l5.25,2a0.65,0.65,0,0,0,.83-0.36A14,14,0,0,1,23.55,6.93a13.75,13.75,0,0,1,12.28,7.5,0.65,0.65,0,0,1-.35.89l-2.82,1.13a0.65,0.65,0,0,0-.08,1.17l10.16,5.86a0.65,0.65,0,0,0,1-.4l3-11.11a0.65,0.65,0,0,0-.87-0.77Z"/>
    <path class="cls-1" d="M23.55,34.63a13.92,13.92,0,0,1-12.3-7.56,0.65,0.65,0,0,1,.35-0.9l2.71-1A0.65,0.65,0,0,0,14.4,24l-10-5.72a0.65,0.65,0,0,0-.95.39L0.36,29.4a0.65,0.65,0,0,0,.86.78l2.66-1a0.65,0.65,0,0,1,.82.34A20.91,20.91,0,0,0,23.55,41.56a20.68,20.68,0,0,0,19-12.47,0.66,0.66,0,0,0-.36-0.86L37,26.14a0.65,0.65,0,0,0-.83.35A13.79,13.79,0,0,1,23.55,34.63Z"/>
  </g>
</svg>
