<svg id="Layer_15" data-name="Layer 15" xmlns="http://www.w3.org/2000/svg" width="196.97" height="148.43" viewBox="0 0 196.97 148.43">
  <defs>
    <style>
      .cls-1 {
        fill: #999;
        stroke-width: 1.51px;
      }

      .cls-1, .cls-2, .cls-3, .cls-4, .cls-5, .cls-6 {
        stroke: #fff;
        stroke-miterlimit: 10;
      }

      .cls-2 {
        fill: #eee;
      }

      .cls-2, .cls-3, .cls-4, .cls-5, .cls-6 {
        stroke-width: 0.9px;
      }

      .cls-3 {
        fill: #ddd;
      }

      .cls-4 {
        fill: #aaa;
      }

      .cls-5 {
        fill: #555;
      }

      .cls-6 {
        fill: #231f20;
      }
    </style>
  </defs>
  <title>rockpaperscissors</title>
  <g>
    <polygon class="cls-1" points="85.03 0.8 179.98 21.34 196.18 106.88 178.31 147.67 110.93 147.67 59.13 147.67 0.84 122.06 10.46 63.24 40.26 28.62 85.03 0.8"/>
    <polygon class="cls-2" points="10.46 64.13 50.81 101.51 0.84 121.69 10.46 64.13"/>
    <path class="cls-3" d="M85.26,1l41,37.17L76.65,59,85,1.11A0.17,0.17,0,0,1,85.26,1Z"/>
    <path class="cls-4" d="M86,1L179,21.12a0.27,0.27,0,0,1,0,.53L126.26,38.18,85.78,1.48A0.27,0.27,0,0,1,86,1Z"/>
    <polygon class="cls-5" points="76.29 59.43 125.98 38.52 116.63 98.41 76.29 59.43"/>
    <path class="cls-5" d="M84.92,1.53L76.29,59.43l-36-30.82L84.41,1.19A0.34,0.34,0,0,1,84.92,1.53Z"/>
    <path class="cls-5" d="M51.52,101.51l64.93-3.09a0.49,0.49,0,0,1,.33.11L176.35,147,51.51,101.52A0,0,0,0,1,51.52,101.51Z"/>
    <path class="cls-6" d="M117.17,98.56l78.54,8.27a0.34,0.34,0,0,1,.28.48l-17.24,39.36a0.84,0.84,0,0,1-1.29.32Z"/>
    <path class="cls-5" d="M126.85,38l52.73-16.54a0.37,0.37,0,0,1,.47.28L196,105.36a0.37,0.37,0,0,1-.62.33L126.7,38.61A0.37,0.37,0,0,1,126.85,38Z"/>
    <path class="cls-3" d="M51.66,101.57l124.28,46.1H59.23a0.11,0.11,0,0,1-.11-0.09L51.51,101.7A0.11,0.11,0,0,1,51.66,101.57Z"/>
    <path class="cls-3" d="M40.33,29L51,101.51,10.46,64.13,39.95,28.9A0.22,0.22,0,0,1,40.33,29Z"/>
    <path class="cls-4" d="M1.71,121.34l49.1-19.83,8.33,45.43L1.7,122.07A0.39,0.39,0,0,1,1.71,121.34Z"/>
  </g>
</svg>
