<svg id="Layer_17" data-name="Layer 17" xmlns="http://www.w3.org/2000/svg" width="200.11" height="142.28" viewBox="0 0 200.11 142.28">
  <defs>
    <style>
      .cls-1 {
        fill: #b3b3b3;
      }

      .cls-1, .cls-2, .cls-3, .cls-4, .cls-5, .cls-6, .cls-7 {
        stroke: #fff;
        stroke-miterlimit: 10;
      }

      .cls-1, .cls-2, .cls-4, .cls-5, .cls-6, .cls-7 {
        stroke-width: 0.88px;
      }

      .cls-2 {
        fill: #666;
      }

      .cls-3 {
        fill: #999;
      }

      .cls-4 {
        fill: #ccc;
      }

      .cls-5 {
        fill: #4d4d4d;
      }

      .cls-6 {
        fill: #f2f2f2;
      }

      .cls-7 {
        fill: #333;
      }
    </style>
  </defs>
  <title>rockpaperscissors</title>
  <g>
    <polygon class="cls-1" points="1.32 13.61 96.87 70.33 113.51 59.84 34.61 9.3 1.32 13.61"/>
    <polygon class="cls-2" points="119.06 81.42 144.33 96.22 148.65 100.53 149.26 118.41 153.58 130.74 167.14 139.98 183.17 141.83 196.12 135.67 198.58 118.41 181.94 99.91 149.26 87.58 141.87 78.34 132.62 72.17 119.06 81.42"/>
    <polygon class="cls-3" points="133.4 47.77 133.4 28.45 149.59 10.59 167.76 0.79 191.5 0.79 199.2 11.76 196.12 23.48 145.57 56.15 140.02 61.08 142.7 67.85 33.37 132.59 2.26 127.04 133.4 47.77"/>
    <path class="cls-4" d="M33.49,132.37L52.45,97a0.07,0.07,0,0,1,.07,0l32.82,4.46a0.07,0.07,0,0,1,0,.12L33.58,132.46A0.07,0.07,0,0,1,33.49,132.37Z"/>
    <path class="cls-5" d="M141.82,67.35l-28.48-7.4a0.34,0.34,0,0,1-.08-0.62l20.41-11.27a0.34,0.34,0,0,1,.47.16l8.07,18.67A0.34,0.34,0,0,1,141.82,67.35Z"/>
    <polygon class="cls-6" points="142.02 41.78 142.34 30.23 154.85 16.75 171.22 10.65 184.38 11.93 184.7 19.64 143.3 47.56 142.02 41.78"/>
    <path class="cls-4" d="M34.4,9.4l7.53,28.31a0.07,0.07,0,0,0,.05,0L94.39,48.31a0.07,0.07,0,0,0,.05-0.12L34.5,9.33A0.07,0.07,0,0,0,34.4,9.4Z"/>
    <polygon class="cls-4" points="96.56 69.92 85.53 101.47 125.39 78.42 96.56 69.92"/>
    <path class="cls-7" d="M113.13,60.07l12.25,18.35L141.9,68c0.13-.08-1.7-0.77-1.45-0.5Z"/>
    <polygon class="cls-4" points="94.74 48.38 96.56 69.92 113.13 60.07 94.74 48.38"/>
    <polygon class="cls-7" points="140.53 59.56 143.3 47.56 184.7 19.64 140.53 59.56"/>
    <polygon class="cls-7" points="195.86 23.25 184.7 19.64 199.26 11.52 195.86 23.25"/>
    <path class="cls-7" d="M134.35,28.92L142,41.78l-8,6.1L134.15,29A0.11,0.11,0,0,1,134.35,28.92Z"/>
    <polygon class="cls-7" points="133.93 73.31 143.94 95.41 119.74 81.92 133.93 73.31"/>
    <polygon class="cls-6" points="162 125.06 157.53 115.31 157.13 98.65 173.79 105.56 188.2 119.37 186.99 130.75 170.6 132.44 162 125.06"/>
    <polygon class="cls-7" points="134.16 28.59 142.34 30.23 149.83 10.98 134.16 28.59"/>
    <polygon class="cls-7" points="154.85 16.75 167.58 1.16 171.22 10.65 154.85 16.75"/>
    <polygon class="cls-7" points="184.38 11.93 199.26 11.52 191.37 0.78 184.38 11.93"/>
    <polygon class="cls-7" points="167.58 1.16 184.38 11.93 191.37 0.78 167.58 1.16"/>
    <polygon class="cls-7" points="148.79 99.88 157.13 98.65 149.14 87.89 148.79 99.88"/>
    <path class="cls-7" d="M157.29,116.28l-3.35,13.26a0.35,0.35,0,0,0,.54.38l7.27-4.7a0.35,0.35,0,0,0,.13-0.45L158,116.22A0.35,0.35,0,0,0,157.29,116.28Z"/>
    <path class="cls-7" d="M187,130.75l-4,10.61L195,136a0.53,0.53,0,0,0,0-.94Z"/>
    <line class="cls-7" x1="188.2" y1="119.37" x2="197.9" y2="118.24"/>
    <path class="cls-7" d="M188.87,120.58l6.69,14.16a0.32,0.32,0,0,1-.44.42l-8-4.3a0.32,0.32,0,0,1-.16-0.31l1.2-11.17,0.66,1.19v0Z"/>
    <polyline class="cls-7" points="157.13 98.65 173.79 105.56 181.32 100.05"/>
    <path class="cls-7" d="M157.44,115.34l-7.73,2.77a0.14,0.14,0,0,1-.17-0.18l7.34-18.65a0.14,0.14,0,0,1,.27,0l0.39,15.88A0.14,0.14,0,0,1,157.44,115.34Z"/>
    <path class="cls-7" d="M167.57,139.43l18.21-8.14a0.21,0.21,0,0,0-.11-0.4l-15,1.54a0.21,0.21,0,0,0-.17.12l-3.25,6.6A0.21,0.21,0,0,0,167.57,139.43Z"/>
    <path class="cls-7" d="M162.12,125.4l4.64,13.46a0.28,0.28,0,0,1-.42.32l-12.27-8.52a0.28,0.28,0,0,1,0-.47l7.63-4.93A0.28,0.28,0,0,1,162.12,125.4Z"/>
    <path class="cls-7" d="M150.76,88.5l29.52,11.07a0.23,0.23,0,0,1-.09.44l-23.06-1.36-7-9.37A0.51,0.51,0,0,1,150.76,88.5Z"/>
    <path class="cls-7" d="M188.2,119.37L181.32,100Z"/>
  </g>
</svg>
